<mxfile host="app.diagrams.net" modified="2022-06-15T08:13:04.592Z" agent="5.0 (Windows NT 10.0; Win64; x64) AppleWebKit/537.36 (KHTML, like Gecko) Chrome/102.0.5005.63 Safari/537.36 Edg/102.0.1245.39" etag="1k70lsD-Z9EwlFjH6149" version="20.0.1" type="github">
  <diagram id="C5RBs43oDa-KdzZeNtuy" name="Page-1">
    <mxGraphModel dx="1673" dy="1075" grid="1" gridSize="10" guides="1" tooltips="1" connect="1" arrows="1" fold="1" page="1" pageScale="1" pageWidth="827" pageHeight="1169" math="0" shadow="0">
      <root>
        <mxCell id="WIyWlLk6GJQsqaUBKTNV-0" />
        <mxCell id="WIyWlLk6GJQsqaUBKTNV-1" parent="WIyWlLk6GJQsqaUBKTNV-0" />
        <mxCell id="4x82MqHF7VBYx0RcAm6R-3" style="edgeStyle=orthogonalEdgeStyle;rounded=0;orthogonalLoop=1;jettySize=auto;html=1;exitX=0.5;exitY=1;exitDx=0;exitDy=0;entryX=0.5;entryY=0;entryDx=0;entryDy=0;" edge="1" parent="WIyWlLk6GJQsqaUBKTNV-1" source="4x82MqHF7VBYx0RcAm6R-0" target="4x82MqHF7VBYx0RcAm6R-2">
          <mxGeometry relative="1" as="geometry" />
        </mxCell>
        <mxCell id="4x82MqHF7VBYx0RcAm6R-0" value="START" style="ellipse;whiteSpace=wrap;html=1;" vertex="1" parent="WIyWlLk6GJQsqaUBKTNV-1">
          <mxGeometry x="80" y="40" width="120" height="80" as="geometry" />
        </mxCell>
        <mxCell id="4x82MqHF7VBYx0RcAm6R-5" value="" style="edgeStyle=orthogonalEdgeStyle;rounded=0;orthogonalLoop=1;jettySize=auto;html=1;" edge="1" parent="WIyWlLk6GJQsqaUBKTNV-1" source="4x82MqHF7VBYx0RcAm6R-2" target="4x82MqHF7VBYx0RcAm6R-4">
          <mxGeometry relative="1" as="geometry" />
        </mxCell>
        <mxCell id="4x82MqHF7VBYx0RcAm6R-2" value="int *b&lt;br&gt;int x" style="shape=parallelogram;perimeter=parallelogramPerimeter;whiteSpace=wrap;html=1;fixedSize=1;" vertex="1" parent="WIyWlLk6GJQsqaUBKTNV-1">
          <mxGeometry x="80" y="150" width="120" height="60" as="geometry" />
        </mxCell>
        <mxCell id="4x82MqHF7VBYx0RcAm6R-7" value="" style="edgeStyle=orthogonalEdgeStyle;rounded=0;orthogonalLoop=1;jettySize=auto;html=1;" edge="1" parent="WIyWlLk6GJQsqaUBKTNV-1" source="4x82MqHF7VBYx0RcAm6R-4" target="4x82MqHF7VBYx0RcAm6R-6">
          <mxGeometry relative="1" as="geometry" />
        </mxCell>
        <mxCell id="4x82MqHF7VBYx0RcAm6R-4" value="int i = 0" style="whiteSpace=wrap;html=1;" vertex="1" parent="WIyWlLk6GJQsqaUBKTNV-1">
          <mxGeometry x="80" y="250" width="120" height="60" as="geometry" />
        </mxCell>
        <mxCell id="4x82MqHF7VBYx0RcAm6R-10" value="T" style="edgeStyle=orthogonalEdgeStyle;rounded=0;orthogonalLoop=1;jettySize=auto;html=1;" edge="1" parent="WIyWlLk6GJQsqaUBKTNV-1" source="4x82MqHF7VBYx0RcAm6R-6" target="4x82MqHF7VBYx0RcAm6R-9">
          <mxGeometry relative="1" as="geometry" />
        </mxCell>
        <mxCell id="4x82MqHF7VBYx0RcAm6R-21" style="edgeStyle=orthogonalEdgeStyle;rounded=0;orthogonalLoop=1;jettySize=auto;html=1;exitX=1;exitY=0.5;exitDx=0;exitDy=0;entryX=0.5;entryY=0;entryDx=0;entryDy=0;" edge="1" parent="WIyWlLk6GJQsqaUBKTNV-1" source="4x82MqHF7VBYx0RcAm6R-6" target="4x82MqHF7VBYx0RcAm6R-11">
          <mxGeometry relative="1" as="geometry">
            <Array as="points">
              <mxPoint x="240" y="390" />
              <mxPoint x="240" y="690" />
              <mxPoint x="140" y="690" />
            </Array>
          </mxGeometry>
        </mxCell>
        <mxCell id="4x82MqHF7VBYx0RcAm6R-6" value="i&amp;lt;x?" style="rhombus;whiteSpace=wrap;html=1;" vertex="1" parent="WIyWlLk6GJQsqaUBKTNV-1">
          <mxGeometry x="100" y="350" width="80" height="80" as="geometry" />
        </mxCell>
        <mxCell id="4x82MqHF7VBYx0RcAm6R-18" value="" style="edgeStyle=orthogonalEdgeStyle;rounded=0;orthogonalLoop=1;jettySize=auto;html=1;" edge="1" parent="WIyWlLk6GJQsqaUBKTNV-1" source="4x82MqHF7VBYx0RcAm6R-9" target="4x82MqHF7VBYx0RcAm6R-17">
          <mxGeometry relative="1" as="geometry" />
        </mxCell>
        <mxCell id="4x82MqHF7VBYx0RcAm6R-9" value="b[i] = any integer value" style="whiteSpace=wrap;html=1;" vertex="1" parent="WIyWlLk6GJQsqaUBKTNV-1">
          <mxGeometry x="80" y="470" width="120" height="60" as="geometry" />
        </mxCell>
        <mxCell id="4x82MqHF7VBYx0RcAm6R-14" value="" style="edgeStyle=orthogonalEdgeStyle;rounded=0;orthogonalLoop=1;jettySize=auto;html=1;" edge="1" parent="WIyWlLk6GJQsqaUBKTNV-1" source="4x82MqHF7VBYx0RcAm6R-11" target="4x82MqHF7VBYx0RcAm6R-13">
          <mxGeometry relative="1" as="geometry" />
        </mxCell>
        <mxCell id="4x82MqHF7VBYx0RcAm6R-11" value="bubble(x, b)" style="shape=process;whiteSpace=wrap;html=1;backgroundOutline=1;" vertex="1" parent="WIyWlLk6GJQsqaUBKTNV-1">
          <mxGeometry x="80" y="710" width="120" height="60" as="geometry" />
        </mxCell>
        <mxCell id="4x82MqHF7VBYx0RcAm6R-16" value="" style="edgeStyle=orthogonalEdgeStyle;rounded=0;orthogonalLoop=1;jettySize=auto;html=1;" edge="1" parent="WIyWlLk6GJQsqaUBKTNV-1" source="4x82MqHF7VBYx0RcAm6R-13" target="4x82MqHF7VBYx0RcAm6R-15">
          <mxGeometry relative="1" as="geometry" />
        </mxCell>
        <mxCell id="4x82MqHF7VBYx0RcAm6R-13" value="delete[] b" style="whiteSpace=wrap;html=1;" vertex="1" parent="WIyWlLk6GJQsqaUBKTNV-1">
          <mxGeometry x="80" y="810" width="120" height="60" as="geometry" />
        </mxCell>
        <mxCell id="4x82MqHF7VBYx0RcAm6R-15" value="END" style="ellipse;whiteSpace=wrap;html=1;" vertex="1" parent="WIyWlLk6GJQsqaUBKTNV-1">
          <mxGeometry x="80" y="920" width="120" height="60" as="geometry" />
        </mxCell>
        <mxCell id="4x82MqHF7VBYx0RcAm6R-19" style="edgeStyle=orthogonalEdgeStyle;rounded=0;orthogonalLoop=1;jettySize=auto;html=1;exitX=0;exitY=0.5;exitDx=0;exitDy=0;entryX=0;entryY=0.5;entryDx=0;entryDy=0;" edge="1" parent="WIyWlLk6GJQsqaUBKTNV-1" source="4x82MqHF7VBYx0RcAm6R-17" target="4x82MqHF7VBYx0RcAm6R-6">
          <mxGeometry relative="1" as="geometry" />
        </mxCell>
        <mxCell id="4x82MqHF7VBYx0RcAm6R-20" style="edgeStyle=orthogonalEdgeStyle;rounded=0;orthogonalLoop=1;jettySize=auto;html=1;exitX=0.5;exitY=1;exitDx=0;exitDy=0;entryX=0.5;entryY=0;entryDx=0;entryDy=0;" edge="1" parent="WIyWlLk6GJQsqaUBKTNV-1" source="4x82MqHF7VBYx0RcAm6R-17" target="4x82MqHF7VBYx0RcAm6R-11">
          <mxGeometry relative="1" as="geometry" />
        </mxCell>
        <mxCell id="4x82MqHF7VBYx0RcAm6R-17" value="i++" style="whiteSpace=wrap;html=1;" vertex="1" parent="WIyWlLk6GJQsqaUBKTNV-1">
          <mxGeometry x="80" y="610" width="120" height="60" as="geometry" />
        </mxCell>
        <mxCell id="4x82MqHF7VBYx0RcAm6R-55" value="" style="edgeStyle=orthogonalEdgeStyle;rounded=0;orthogonalLoop=1;jettySize=auto;html=1;" edge="1" parent="WIyWlLk6GJQsqaUBKTNV-1" source="4x82MqHF7VBYx0RcAm6R-22" target="4x82MqHF7VBYx0RcAm6R-54">
          <mxGeometry relative="1" as="geometry" />
        </mxCell>
        <mxCell id="4x82MqHF7VBYx0RcAm6R-22" value="bubble(int x, int *b)" style="ellipse;whiteSpace=wrap;html=1;" vertex="1" parent="WIyWlLk6GJQsqaUBKTNV-1">
          <mxGeometry x="409.94" y="40" width="120" height="80" as="geometry" />
        </mxCell>
        <mxCell id="4x82MqHF7VBYx0RcAm6R-26" style="edgeStyle=orthogonalEdgeStyle;rounded=0;orthogonalLoop=1;jettySize=auto;html=1;exitX=0.5;exitY=1;exitDx=0;exitDy=0;entryX=0.5;entryY=0;entryDx=0;entryDy=0;" edge="1" parent="WIyWlLk6GJQsqaUBKTNV-1" source="4x82MqHF7VBYx0RcAm6R-23" target="4x82MqHF7VBYx0RcAm6R-25">
          <mxGeometry relative="1" as="geometry" />
        </mxCell>
        <mxCell id="4x82MqHF7VBYx0RcAm6R-23" value="int i = 0&lt;br&gt;int j = x-1" style="rounded=0;whiteSpace=wrap;html=1;" vertex="1" parent="WIyWlLk6GJQsqaUBKTNV-1">
          <mxGeometry x="409.94" y="280" width="120" height="60" as="geometry" />
        </mxCell>
        <mxCell id="4x82MqHF7VBYx0RcAm6R-101" value="F" style="edgeStyle=orthogonalEdgeStyle;rounded=0;orthogonalLoop=1;jettySize=auto;html=1;exitX=1;exitY=0.5;exitDx=0;exitDy=0;entryX=0.5;entryY=0;entryDx=0;entryDy=0;" edge="1" parent="WIyWlLk6GJQsqaUBKTNV-1" source="4x82MqHF7VBYx0RcAm6R-25" target="4x82MqHF7VBYx0RcAm6R-102">
          <mxGeometry relative="1" as="geometry">
            <mxPoint x="469.94" y="2310" as="targetPoint" />
            <Array as="points">
              <mxPoint x="809.94" y="400" />
              <mxPoint x="809.94" y="2300" />
              <mxPoint x="469.94" y="2300" />
            </Array>
          </mxGeometry>
        </mxCell>
        <mxCell id="4x82MqHF7VBYx0RcAm6R-107" value="" style="edgeStyle=orthogonalEdgeStyle;rounded=0;orthogonalLoop=1;jettySize=auto;html=1;" edge="1" parent="WIyWlLk6GJQsqaUBKTNV-1" source="4x82MqHF7VBYx0RcAm6R-25" target="4x82MqHF7VBYx0RcAm6R-106">
          <mxGeometry relative="1" as="geometry" />
        </mxCell>
        <mxCell id="4x82MqHF7VBYx0RcAm6R-25" value="i&amp;lt;x -1?" style="rhombus;whiteSpace=wrap;html=1;" vertex="1" parent="WIyWlLk6GJQsqaUBKTNV-1">
          <mxGeometry x="429.94" y="360" width="80" height="80" as="geometry" />
        </mxCell>
        <mxCell id="4x82MqHF7VBYx0RcAm6R-58" value="T" style="edgeStyle=orthogonalEdgeStyle;rounded=0;orthogonalLoop=1;jettySize=auto;html=1;" edge="1" parent="WIyWlLk6GJQsqaUBKTNV-1" source="4x82MqHF7VBYx0RcAm6R-27" target="4x82MqHF7VBYx0RcAm6R-57">
          <mxGeometry relative="1" as="geometry" />
        </mxCell>
        <mxCell id="4x82MqHF7VBYx0RcAm6R-99" value="F" style="edgeStyle=orthogonalEdgeStyle;rounded=0;orthogonalLoop=1;jettySize=auto;html=1;exitX=1;exitY=0.5;exitDx=0;exitDy=0;entryX=0.5;entryY=0;entryDx=0;entryDy=0;" edge="1" parent="WIyWlLk6GJQsqaUBKTNV-1" source="4x82MqHF7VBYx0RcAm6R-27" target="4x82MqHF7VBYx0RcAm6R-41">
          <mxGeometry relative="1" as="geometry">
            <Array as="points">
              <mxPoint x="779.94" y="700" />
              <mxPoint x="779.94" y="2200" />
              <mxPoint x="469.94" y="2200" />
            </Array>
          </mxGeometry>
        </mxCell>
        <mxCell id="4x82MqHF7VBYx0RcAm6R-27" value="i&amp;lt;j ?" style="rhombus;whiteSpace=wrap;html=1;" vertex="1" parent="WIyWlLk6GJQsqaUBKTNV-1">
          <mxGeometry x="429.94" y="660" width="80" height="80" as="geometry" />
        </mxCell>
        <mxCell id="4x82MqHF7VBYx0RcAm6R-34" value="T" style="edgeStyle=orthogonalEdgeStyle;rounded=0;orthogonalLoop=1;jettySize=auto;html=1;" edge="1" parent="WIyWlLk6GJQsqaUBKTNV-1" source="4x82MqHF7VBYx0RcAm6R-29" target="4x82MqHF7VBYx0RcAm6R-33">
          <mxGeometry relative="1" as="geometry" />
        </mxCell>
        <mxCell id="4x82MqHF7VBYx0RcAm6R-80" value="F" style="edgeStyle=orthogonalEdgeStyle;rounded=0;orthogonalLoop=1;jettySize=auto;html=1;exitX=1;exitY=0.5;exitDx=0;exitDy=0;entryX=0.5;entryY=0;entryDx=0;entryDy=0;" edge="1" parent="WIyWlLk6GJQsqaUBKTNV-1" source="4x82MqHF7VBYx0RcAm6R-29" target="4x82MqHF7VBYx0RcAm6R-81">
          <mxGeometry relative="1" as="geometry">
            <mxPoint x="649.94" y="1040" as="targetPoint" />
          </mxGeometry>
        </mxCell>
        <mxCell id="4x82MqHF7VBYx0RcAm6R-29" value="b[j-1]&amp;gt;b[j]?" style="rhombus;whiteSpace=wrap;html=1;" vertex="1" parent="WIyWlLk6GJQsqaUBKTNV-1">
          <mxGeometry x="414.94" y="860" width="110" height="90" as="geometry" />
        </mxCell>
        <mxCell id="4x82MqHF7VBYx0RcAm6R-36" value="" style="edgeStyle=orthogonalEdgeStyle;rounded=0;orthogonalLoop=1;jettySize=auto;html=1;" edge="1" parent="WIyWlLk6GJQsqaUBKTNV-1" source="4x82MqHF7VBYx0RcAm6R-33" target="4x82MqHF7VBYx0RcAm6R-35">
          <mxGeometry relative="1" as="geometry" />
        </mxCell>
        <mxCell id="4x82MqHF7VBYx0RcAm6R-33" value="swap_index = j-1&lt;br&gt;swap_num++&lt;br&gt;int t" style="whiteSpace=wrap;html=1;" vertex="1" parent="WIyWlLk6GJQsqaUBKTNV-1">
          <mxGeometry x="409.94" y="980" width="120" height="60" as="geometry" />
        </mxCell>
        <mxCell id="4x82MqHF7VBYx0RcAm6R-65" value="" style="edgeStyle=orthogonalEdgeStyle;rounded=0;orthogonalLoop=1;jettySize=auto;html=1;" edge="1" parent="WIyWlLk6GJQsqaUBKTNV-1" source="4x82MqHF7VBYx0RcAm6R-35" target="4x82MqHF7VBYx0RcAm6R-64">
          <mxGeometry relative="1" as="geometry" />
        </mxCell>
        <mxCell id="4x82MqHF7VBYx0RcAm6R-35" value="&lt;span style=&quot;&quot;&gt;t = b[j-1]&lt;/span&gt;&lt;br style=&quot;&quot;&gt;&lt;span style=&quot;&quot;&gt;b[j-1] = b[j]&lt;/span&gt;&lt;br style=&quot;&quot;&gt;&lt;span style=&quot;&quot;&gt;b[j] = t&lt;/span&gt;" style="whiteSpace=wrap;html=1;" vertex="1" parent="WIyWlLk6GJQsqaUBKTNV-1">
          <mxGeometry x="409.94" y="1070" width="120" height="60" as="geometry" />
        </mxCell>
        <mxCell id="4x82MqHF7VBYx0RcAm6R-42" value="" style="edgeStyle=orthogonalEdgeStyle;rounded=0;orthogonalLoop=1;jettySize=auto;html=1;" edge="1" parent="WIyWlLk6GJQsqaUBKTNV-1" source="4x82MqHF7VBYx0RcAm6R-38" target="4x82MqHF7VBYx0RcAm6R-41">
          <mxGeometry relative="1" as="geometry" />
        </mxCell>
        <mxCell id="4x82MqHF7VBYx0RcAm6R-98" style="edgeStyle=orthogonalEdgeStyle;rounded=0;orthogonalLoop=1;jettySize=auto;html=1;exitX=0;exitY=0.5;exitDx=0;exitDy=0;entryX=0;entryY=0.5;entryDx=0;entryDy=0;" edge="1" parent="WIyWlLk6GJQsqaUBKTNV-1" source="4x82MqHF7VBYx0RcAm6R-38" target="4x82MqHF7VBYx0RcAm6R-27">
          <mxGeometry relative="1" as="geometry">
            <Array as="points">
              <mxPoint x="299.94" y="2140" />
              <mxPoint x="299.94" y="700" />
            </Array>
          </mxGeometry>
        </mxCell>
        <mxCell id="4x82MqHF7VBYx0RcAm6R-38" value="j--" style="whiteSpace=wrap;html=1;" vertex="1" parent="WIyWlLk6GJQsqaUBKTNV-1">
          <mxGeometry x="409.94" y="2110" width="120" height="60" as="geometry" />
        </mxCell>
        <mxCell id="4x82MqHF7VBYx0RcAm6R-100" style="edgeStyle=orthogonalEdgeStyle;rounded=0;orthogonalLoop=1;jettySize=auto;html=1;exitX=0;exitY=0.5;exitDx=0;exitDy=0;entryX=0;entryY=0.5;entryDx=0;entryDy=0;" edge="1" parent="WIyWlLk6GJQsqaUBKTNV-1" source="4x82MqHF7VBYx0RcAm6R-41" target="4x82MqHF7VBYx0RcAm6R-25">
          <mxGeometry relative="1" as="geometry">
            <Array as="points">
              <mxPoint x="279.94" y="2250" />
              <mxPoint x="279.94" y="400" />
            </Array>
          </mxGeometry>
        </mxCell>
        <mxCell id="4x82MqHF7VBYx0RcAm6R-103" style="edgeStyle=orthogonalEdgeStyle;rounded=0;orthogonalLoop=1;jettySize=auto;html=1;exitX=0.5;exitY=1;exitDx=0;exitDy=0;entryX=0.5;entryY=0;entryDx=0;entryDy=0;" edge="1" parent="WIyWlLk6GJQsqaUBKTNV-1" source="4x82MqHF7VBYx0RcAm6R-41" target="4x82MqHF7VBYx0RcAm6R-102">
          <mxGeometry relative="1" as="geometry" />
        </mxCell>
        <mxCell id="4x82MqHF7VBYx0RcAm6R-41" value="i++" style="whiteSpace=wrap;html=1;" vertex="1" parent="WIyWlLk6GJQsqaUBKTNV-1">
          <mxGeometry x="409.94" y="2220" width="120" height="60" as="geometry" />
        </mxCell>
        <mxCell id="4x82MqHF7VBYx0RcAm6R-56" style="edgeStyle=orthogonalEdgeStyle;rounded=0;orthogonalLoop=1;jettySize=auto;html=1;exitX=0.5;exitY=1;exitDx=0;exitDy=0;entryX=0.5;entryY=0;entryDx=0;entryDy=0;" edge="1" parent="WIyWlLk6GJQsqaUBKTNV-1" source="4x82MqHF7VBYx0RcAm6R-54" target="4x82MqHF7VBYx0RcAm6R-23">
          <mxGeometry relative="1" as="geometry" />
        </mxCell>
        <mxCell id="4x82MqHF7VBYx0RcAm6R-54" value="int pass =0&lt;br&gt;int cmp = 0&lt;br&gt;int cmp_index = -1&lt;br&gt;int swap_index = -1&lt;br&gt;int swap_num = 0" style="whiteSpace=wrap;html=1;" vertex="1" parent="WIyWlLk6GJQsqaUBKTNV-1">
          <mxGeometry x="394.94" y="150" width="150" height="90" as="geometry" />
        </mxCell>
        <mxCell id="4x82MqHF7VBYx0RcAm6R-59" style="edgeStyle=orthogonalEdgeStyle;rounded=0;orthogonalLoop=1;jettySize=auto;html=1;exitX=0.5;exitY=1;exitDx=0;exitDy=0;entryX=0.5;entryY=0;entryDx=0;entryDy=0;" edge="1" parent="WIyWlLk6GJQsqaUBKTNV-1" source="4x82MqHF7VBYx0RcAm6R-57" target="4x82MqHF7VBYx0RcAm6R-29">
          <mxGeometry relative="1" as="geometry" />
        </mxCell>
        <mxCell id="4x82MqHF7VBYx0RcAm6R-57" value="cmp++&lt;br&gt;cmp_index = j-1" style="whiteSpace=wrap;html=1;" vertex="1" parent="WIyWlLk6GJQsqaUBKTNV-1">
          <mxGeometry x="409.94" y="770" width="120" height="60" as="geometry" />
        </mxCell>
        <mxCell id="4x82MqHF7VBYx0RcAm6R-67" value="" style="edgeStyle=orthogonalEdgeStyle;rounded=0;orthogonalLoop=1;jettySize=auto;html=1;" edge="1" parent="WIyWlLk6GJQsqaUBKTNV-1" source="4x82MqHF7VBYx0RcAm6R-64" target="4x82MqHF7VBYx0RcAm6R-66">
          <mxGeometry relative="1" as="geometry" />
        </mxCell>
        <mxCell id="4x82MqHF7VBYx0RcAm6R-64" value="print &quot; &quot;" style="whiteSpace=wrap;html=1;" vertex="1" parent="WIyWlLk6GJQsqaUBKTNV-1">
          <mxGeometry x="409.94" y="1160" width="120" height="60" as="geometry" />
        </mxCell>
        <mxCell id="4x82MqHF7VBYx0RcAm6R-69" style="edgeStyle=orthogonalEdgeStyle;rounded=0;orthogonalLoop=1;jettySize=auto;html=1;exitX=0.5;exitY=1;exitDx=0;exitDy=0;entryX=0.5;entryY=0;entryDx=0;entryDy=0;" edge="1" parent="WIyWlLk6GJQsqaUBKTNV-1" source="4x82MqHF7VBYx0RcAm6R-66" target="4x82MqHF7VBYx0RcAm6R-68">
          <mxGeometry relative="1" as="geometry" />
        </mxCell>
        <mxCell id="4x82MqHF7VBYx0RcAm6R-66" value="int k =0" style="whiteSpace=wrap;html=1;" vertex="1" parent="WIyWlLk6GJQsqaUBKTNV-1">
          <mxGeometry x="409.94" y="1250" width="120" height="60" as="geometry" />
        </mxCell>
        <mxCell id="4x82MqHF7VBYx0RcAm6R-72" value="" style="edgeStyle=orthogonalEdgeStyle;rounded=0;orthogonalLoop=1;jettySize=auto;html=1;" edge="1" parent="WIyWlLk6GJQsqaUBKTNV-1" source="4x82MqHF7VBYx0RcAm6R-68" target="4x82MqHF7VBYx0RcAm6R-71">
          <mxGeometry relative="1" as="geometry" />
        </mxCell>
        <mxCell id="4x82MqHF7VBYx0RcAm6R-97" value="F" style="edgeStyle=orthogonalEdgeStyle;rounded=0;orthogonalLoop=1;jettySize=auto;html=1;exitX=1;exitY=0.5;exitDx=0;exitDy=0;entryX=0.5;entryY=0;entryDx=0;entryDy=0;" edge="1" parent="WIyWlLk6GJQsqaUBKTNV-1" source="4x82MqHF7VBYx0RcAm6R-68" target="4x82MqHF7VBYx0RcAm6R-78">
          <mxGeometry relative="1" as="geometry">
            <Array as="points">
              <mxPoint x="759.94" y="1390" />
              <mxPoint x="759.94" y="1990" />
              <mxPoint x="469.94" y="1990" />
            </Array>
          </mxGeometry>
        </mxCell>
        <mxCell id="4x82MqHF7VBYx0RcAm6R-68" value="k&amp;lt;x?" style="rhombus;whiteSpace=wrap;html=1;" vertex="1" parent="WIyWlLk6GJQsqaUBKTNV-1">
          <mxGeometry x="429.94" y="1350" width="80" height="80" as="geometry" />
        </mxCell>
        <mxCell id="4x82MqHF7VBYx0RcAm6R-74" style="edgeStyle=orthogonalEdgeStyle;rounded=0;orthogonalLoop=1;jettySize=auto;html=1;exitX=0.5;exitY=1;exitDx=0;exitDy=0;entryX=0.5;entryY=0;entryDx=0;entryDy=0;" edge="1" parent="WIyWlLk6GJQsqaUBKTNV-1" source="4x82MqHF7VBYx0RcAm6R-71" target="4x82MqHF7VBYx0RcAm6R-73">
          <mxGeometry relative="1" as="geometry" />
        </mxCell>
        <mxCell id="4x82MqHF7VBYx0RcAm6R-71" value="Print b[k]" style="whiteSpace=wrap;html=1;" vertex="1" parent="WIyWlLk6GJQsqaUBKTNV-1">
          <mxGeometry x="409.94" y="1470" width="120" height="60" as="geometry" />
        </mxCell>
        <mxCell id="4x82MqHF7VBYx0RcAm6R-76" value="F" style="edgeStyle=orthogonalEdgeStyle;rounded=0;orthogonalLoop=1;jettySize=auto;html=1;" edge="1" parent="WIyWlLk6GJQsqaUBKTNV-1" source="4x82MqHF7VBYx0RcAm6R-73" target="4x82MqHF7VBYx0RcAm6R-75">
          <mxGeometry relative="1" as="geometry" />
        </mxCell>
        <mxCell id="4x82MqHF7VBYx0RcAm6R-90" value="T" style="edgeStyle=orthogonalEdgeStyle;rounded=0;orthogonalLoop=1;jettySize=auto;html=1;exitX=1;exitY=0.5;exitDx=0;exitDy=0;entryX=0;entryY=0.5;entryDx=0;entryDy=0;" edge="1" parent="WIyWlLk6GJQsqaUBKTNV-1" source="4x82MqHF7VBYx0RcAm6R-73" target="4x82MqHF7VBYx0RcAm6R-91">
          <mxGeometry relative="1" as="geometry">
            <mxPoint x="599.94" y="1604.8235294117649" as="targetPoint" />
          </mxGeometry>
        </mxCell>
        <mxCell id="4x82MqHF7VBYx0RcAm6R-73" value="k == cmp_index &amp;amp;&amp;amp; &lt;br&gt;k == swap_index" style="rhombus;whiteSpace=wrap;html=1;" vertex="1" parent="WIyWlLk6GJQsqaUBKTNV-1">
          <mxGeometry x="379.94" y="1560" width="180" height="90" as="geometry" />
        </mxCell>
        <mxCell id="4x82MqHF7VBYx0RcAm6R-85" value="F" style="edgeStyle=orthogonalEdgeStyle;rounded=0;orthogonalLoop=1;jettySize=auto;html=1;" edge="1" parent="WIyWlLk6GJQsqaUBKTNV-1" source="4x82MqHF7VBYx0RcAm6R-75" target="4x82MqHF7VBYx0RcAm6R-84">
          <mxGeometry relative="1" as="geometry" />
        </mxCell>
        <mxCell id="4x82MqHF7VBYx0RcAm6R-95" value="T" style="edgeStyle=orthogonalEdgeStyle;rounded=0;orthogonalLoop=1;jettySize=auto;html=1;" edge="1" parent="WIyWlLk6GJQsqaUBKTNV-1" source="4x82MqHF7VBYx0RcAm6R-75" target="4x82MqHF7VBYx0RcAm6R-94">
          <mxGeometry relative="1" as="geometry" />
        </mxCell>
        <mxCell id="4x82MqHF7VBYx0RcAm6R-75" value="k == cmp_index &amp;amp;&amp;amp; &lt;br&gt;k != swap_index" style="rhombus;whiteSpace=wrap;html=1;" vertex="1" parent="WIyWlLk6GJQsqaUBKTNV-1">
          <mxGeometry x="379.94" y="1690" width="180" height="90" as="geometry" />
        </mxCell>
        <mxCell id="4x82MqHF7VBYx0RcAm6R-79" style="edgeStyle=orthogonalEdgeStyle;rounded=0;orthogonalLoop=1;jettySize=auto;html=1;exitX=0.5;exitY=1;exitDx=0;exitDy=0;entryX=0.5;entryY=0;entryDx=0;entryDy=0;" edge="1" parent="WIyWlLk6GJQsqaUBKTNV-1" source="4x82MqHF7VBYx0RcAm6R-78" target="4x82MqHF7VBYx0RcAm6R-38">
          <mxGeometry relative="1" as="geometry" />
        </mxCell>
        <mxCell id="4x82MqHF7VBYx0RcAm6R-78" value="Print endl" style="rounded=0;whiteSpace=wrap;html=1;" vertex="1" parent="WIyWlLk6GJQsqaUBKTNV-1">
          <mxGeometry x="409.94" y="2010" width="120" height="60" as="geometry" />
        </mxCell>
        <mxCell id="4x82MqHF7VBYx0RcAm6R-82" style="edgeStyle=orthogonalEdgeStyle;rounded=0;orthogonalLoop=1;jettySize=auto;html=1;exitX=0.5;exitY=1;exitDx=0;exitDy=0;entryX=0.5;entryY=0;entryDx=0;entryDy=0;" edge="1" parent="WIyWlLk6GJQsqaUBKTNV-1" source="4x82MqHF7VBYx0RcAm6R-81" target="4x82MqHF7VBYx0RcAm6R-64">
          <mxGeometry relative="1" as="geometry">
            <Array as="points">
              <mxPoint x="649.94" y="1140" />
              <mxPoint x="469.94" y="1140" />
            </Array>
          </mxGeometry>
        </mxCell>
        <mxCell id="4x82MqHF7VBYx0RcAm6R-81" value="swap_index = -1" style="rounded=0;whiteSpace=wrap;html=1;" vertex="1" parent="WIyWlLk6GJQsqaUBKTNV-1">
          <mxGeometry x="589.94" y="1020" width="120" height="60" as="geometry" />
        </mxCell>
        <mxCell id="4x82MqHF7VBYx0RcAm6R-88" value="" style="edgeStyle=orthogonalEdgeStyle;rounded=0;orthogonalLoop=1;jettySize=auto;html=1;" edge="1" parent="WIyWlLk6GJQsqaUBKTNV-1" source="4x82MqHF7VBYx0RcAm6R-84" target="4x82MqHF7VBYx0RcAm6R-87">
          <mxGeometry relative="1" as="geometry" />
        </mxCell>
        <mxCell id="4x82MqHF7VBYx0RcAm6R-84" value="print &quot;&amp;nbsp; &amp;nbsp; &quot;;" style="whiteSpace=wrap;html=1;" vertex="1" parent="WIyWlLk6GJQsqaUBKTNV-1">
          <mxGeometry x="409.94" y="1820" width="120" height="60" as="geometry" />
        </mxCell>
        <mxCell id="4x82MqHF7VBYx0RcAm6R-89" style="edgeStyle=orthogonalEdgeStyle;rounded=0;orthogonalLoop=1;jettySize=auto;html=1;exitX=0.5;exitY=1;exitDx=0;exitDy=0;entryX=0.5;entryY=0;entryDx=0;entryDy=0;" edge="1" parent="WIyWlLk6GJQsqaUBKTNV-1" source="4x82MqHF7VBYx0RcAm6R-87" target="4x82MqHF7VBYx0RcAm6R-78">
          <mxGeometry relative="1" as="geometry" />
        </mxCell>
        <mxCell id="4x82MqHF7VBYx0RcAm6R-96" style="edgeStyle=orthogonalEdgeStyle;rounded=0;orthogonalLoop=1;jettySize=auto;html=1;exitX=0;exitY=0.5;exitDx=0;exitDy=0;entryX=0;entryY=0.5;entryDx=0;entryDy=0;" edge="1" parent="WIyWlLk6GJQsqaUBKTNV-1" source="4x82MqHF7VBYx0RcAm6R-87" target="4x82MqHF7VBYx0RcAm6R-68">
          <mxGeometry relative="1" as="geometry">
            <Array as="points">
              <mxPoint x="319.94" y="1940" />
              <mxPoint x="319.94" y="1390" />
            </Array>
          </mxGeometry>
        </mxCell>
        <mxCell id="4x82MqHF7VBYx0RcAm6R-87" value="k++" style="whiteSpace=wrap;html=1;" vertex="1" parent="WIyWlLk6GJQsqaUBKTNV-1">
          <mxGeometry x="409.94" y="1910" width="120" height="60" as="geometry" />
        </mxCell>
        <mxCell id="4x82MqHF7VBYx0RcAm6R-91" value="print &quot; - &quot;" style="rounded=0;whiteSpace=wrap;html=1;" vertex="1" parent="WIyWlLk6GJQsqaUBKTNV-1">
          <mxGeometry x="609.94" y="1575" width="120" height="60" as="geometry" />
        </mxCell>
        <mxCell id="4x82MqHF7VBYx0RcAm6R-94" value="print &quot; + &quot;" style="whiteSpace=wrap;html=1;" vertex="1" parent="WIyWlLk6GJQsqaUBKTNV-1">
          <mxGeometry x="609.94" y="1705" width="120" height="60" as="geometry" />
        </mxCell>
        <mxCell id="4x82MqHF7VBYx0RcAm6R-105" value="" style="edgeStyle=orthogonalEdgeStyle;rounded=0;orthogonalLoop=1;jettySize=auto;html=1;" edge="1" parent="WIyWlLk6GJQsqaUBKTNV-1" source="4x82MqHF7VBYx0RcAm6R-102" target="4x82MqHF7VBYx0RcAm6R-104">
          <mxGeometry relative="1" as="geometry" />
        </mxCell>
        <mxCell id="4x82MqHF7VBYx0RcAm6R-102" value="Print cmp" style="rounded=0;whiteSpace=wrap;html=1;" vertex="1" parent="WIyWlLk6GJQsqaUBKTNV-1">
          <mxGeometry x="409.94" y="2320" width="120" height="60" as="geometry" />
        </mxCell>
        <mxCell id="4x82MqHF7VBYx0RcAm6R-104" value="print swap_num" style="whiteSpace=wrap;html=1;rounded=0;" vertex="1" parent="WIyWlLk6GJQsqaUBKTNV-1">
          <mxGeometry x="409.94" y="2410" width="120" height="60" as="geometry" />
        </mxCell>
        <mxCell id="4x82MqHF7VBYx0RcAm6R-115" style="edgeStyle=orthogonalEdgeStyle;rounded=0;orthogonalLoop=1;jettySize=auto;html=1;exitX=0.5;exitY=1;exitDx=0;exitDy=0;entryX=0.5;entryY=0;entryDx=0;entryDy=0;" edge="1" parent="WIyWlLk6GJQsqaUBKTNV-1" source="4x82MqHF7VBYx0RcAm6R-106" target="4x82MqHF7VBYx0RcAm6R-114">
          <mxGeometry relative="1" as="geometry" />
        </mxCell>
        <mxCell id="4x82MqHF7VBYx0RcAm6R-106" value="cmp++" style="whiteSpace=wrap;html=1;" vertex="1" parent="WIyWlLk6GJQsqaUBKTNV-1">
          <mxGeometry x="409.94" y="470" width="120" height="60" as="geometry" />
        </mxCell>
        <mxCell id="4x82MqHF7VBYx0RcAm6R-116" style="edgeStyle=orthogonalEdgeStyle;rounded=0;orthogonalLoop=1;jettySize=auto;html=1;exitX=0.5;exitY=1;exitDx=0;exitDy=0;entryX=0.5;entryY=0;entryDx=0;entryDy=0;" edge="1" parent="WIyWlLk6GJQsqaUBKTNV-1" source="4x82MqHF7VBYx0RcAm6R-114" target="4x82MqHF7VBYx0RcAm6R-27">
          <mxGeometry relative="1" as="geometry" />
        </mxCell>
        <mxCell id="4x82MqHF7VBYx0RcAm6R-114" value="cmp_index = j-1" style="rounded=0;whiteSpace=wrap;html=1;" vertex="1" parent="WIyWlLk6GJQsqaUBKTNV-1">
          <mxGeometry x="409.94" y="570" width="120" height="60" as="geometry" />
        </mxCell>
      </root>
    </mxGraphModel>
  </diagram>
</mxfile>
